REM DIRINDEX 1\2\6,1\2\7,1\2\8,1\2\9,1\3\10,1\3\11,1\4\12,1\4\13,1\4\14,1\5\15,1\5\16,1\5\17
REM DIRNAME cjc029,folder01,folder02,folder03,folder04,folder05,folder06,folder07,folder08,folder09,folder10,folder11,folder12,folder13,folder14,folder15,folder16
TITLE ""
FILE "1400_2_sec01_0067_0084.mp3" MP3
  TRACK 01 AUDIO
    TITLE "0:"
    INDEX 01 00:00:00
  TRACK 02 AUDIO
    TITLE "13:cjc029_1698"
    INDEX 01 00:00:17
  TRACK 03 AUDIO
    TITLE "0:"
    INDEX 01 00:01:24
  TRACK 04 AUDIO
    TITLE "14:cjc029_1699"
    INDEX 01 00:01:30
  TRACK 05 AUDIO
    TITLE "0:"
    INDEX 01 00:02:36
  TRACK 06 AUDIO
    TITLE "13:cjc029_1700"
    INDEX 01 00:03:17
  TRACK 07 AUDIO
    TITLE "0:"
    INDEX 01 00:04:44
  TRACK 08 AUDIO
    TITLE "14:cjc029_1701"
    INDEX 01 00:04:48
  TRACK 09 AUDIO
    TITLE "0:"
    INDEX 01 00:05:54
  TRACK 10 AUDIO
    TITLE "13:cjc029_1702"
    INDEX 01 00:06:35
  TRACK 11 AUDIO
    TITLE "0:"
    INDEX 01 00:07:45
  TRACK 12 AUDIO
    TITLE "14:cjc029_1703"
    INDEX 01 00:07:47
  TRACK 13 AUDIO
    TITLE "0:"
    INDEX 01 00:10:70
  TRACK 14 AUDIO
    TITLE "13:cjc029_1704"
    INDEX 01 00:11:50
  TRACK 15 AUDIO
    TITLE "0:"
    INDEX 01 00:12:67
  TRACK 16 AUDIO
    TITLE "14:cjc029_1705"
    INDEX 01 00:12:69
  TRACK 17 AUDIO
    TITLE "0:"
    INDEX 01 00:15:60
  TRACK 18 AUDIO
    TITLE "13:cjc029_1706"
    INDEX 01 00:16:42
  TRACK 19 AUDIO
    TITLE "0:"
    INDEX 01 00:17:69
  TRACK 20 AUDIO
    TITLE "14:cjc029_1707"
    INDEX 01 00:17:74
  TRACK 21 AUDIO
    TITLE "0:"
    INDEX 01 00:22:60
  TRACK 22 AUDIO
    TITLE "13:cjc029_1708"
    INDEX 01 00:23:42
  TRACK 23 AUDIO
    TITLE "0:"
    INDEX 01 00:24:51
  TRACK 24 AUDIO
    TITLE "14:cjc029_1709"
    INDEX 01 00:24:59
  TRACK 25 AUDIO
    TITLE "0:"
    INDEX 01 00:27:06
  TRACK 26 AUDIO
    TITLE "13:cjc029_1710"
    INDEX 01 00:27:65
  TRACK 27 AUDIO
    TITLE "0:"
    INDEX 01 00:29:19
  TRACK 28 AUDIO
    TITLE "14:cjc029_1711"
    INDEX 01 00:29:23
  TRACK 29 AUDIO
    TITLE "0:"
    INDEX 01 00:33:52
  TRACK 30 AUDIO
    TITLE "13:cjc029_1712"
    INDEX 01 00:34:32
  TRACK 31 AUDIO
    TITLE "0:"
    INDEX 01 00:35:39
  TRACK 32 AUDIO
    TITLE "14:cjc029_1713"
    INDEX 01 00:35:45
  TRACK 33 AUDIO
    TITLE "0:"
    INDEX 01 00:37:52
  TRACK 34 AUDIO
    TITLE "13:cjc029_1714"
    INDEX 01 00:38:33
  TRACK 35 AUDIO
    TITLE "0:"
    INDEX 01 00:39:58
  TRACK 36 AUDIO
    TITLE "14:cjc029_1715"
    INDEX 01 00:39:60
  TRACK 37 AUDIO
    TITLE "0:"
    INDEX 01 00:44:63
  TRACK 38 AUDIO
    TITLE "13:cjc029_1716"
    INDEX 01 00:45:45
  TRACK 39 AUDIO
    TITLE "0:"
    INDEX 01 00:46:49
  TRACK 40 AUDIO
    TITLE "14:cjc029_1717"
    INDEX 01 00:46:53
  TRACK 41 AUDIO
    TITLE "0:"
    INDEX 01 00:48:63
  TRACK 42 AUDIO
    TITLE "13:cjc029_1718"
    INDEX 01 00:49:47
  TRACK 43 AUDIO
    TITLE "0:"
    INDEX 01 00:51:03
  TRACK 44 AUDIO
    TITLE "14:cjc029_1719"
    INDEX 01 00:51:11
  TRACK 45 AUDIO
    TITLE "0:"
    INDEX 01 00:54:27
  TRACK 46 AUDIO
    TITLE "12:cjc029_1720"
    INDEX 01 00:56:02
  TRACK 47 AUDIO
    TITLE "0:"
    INDEX 01 00:57:46
  TRACK 48 AUDIO
    TITLE "13:cjc029_1721"
    INDEX 01 00:58:48
  TRACK 49 AUDIO
    TITLE "0:"
    INDEX 01 00:59:43
  TRACK 50 AUDIO
    TITLE "14:cjc029_1722"
    INDEX 01 00:59:47
  TRACK 51 AUDIO
    TITLE "0:"
    INDEX 01 01:03:10
  TRACK 52 AUDIO
    TITLE "13:cjc029_1723"
    INDEX 01 01:03:67
  TRACK 53 AUDIO
    TITLE "0:"
    INDEX 01 01:04:66
  TRACK 54 AUDIO
    TITLE "14:cjc029_1724"
    INDEX 01 01:04:72
  TRACK 55 AUDIO
    TITLE "0:"
    INDEX 01 01:07:66
  TRACK 56 AUDIO
    TITLE "13:cjc029_1725"
    INDEX 01 01:08:50
  TRACK 57 AUDIO
    TITLE "0:"
    INDEX 01 01:09:56
  TRACK 58 AUDIO
    TITLE "14:cjc029_1726"
    INDEX 01 01:09:59
  TRACK 59 AUDIO
    TITLE "0:"
    INDEX 01 01:13:51
  TRACK 60 AUDIO
    TITLE "13:cjc029_1727"
    INDEX 01 01:14:33
  TRACK 61 AUDIO
    TITLE "0:"
    INDEX 01 01:15:33
  TRACK 62 AUDIO
    TITLE "14:cjc029_1728"
    INDEX 01 01:15:40
  TRACK 63 AUDIO
    TITLE "0:"
    INDEX 01 01:16:61
  TRACK 64 AUDIO
    TITLE "13:cjc029_1729"
    INDEX 01 01:17:41
  TRACK 65 AUDIO
    TITLE "0:"
    INDEX 01 01:18:49
  TRACK 66 AUDIO
    TITLE "14:cjc029_1730"
    INDEX 01 01:18:54
  TRACK 67 AUDIO
    TITLE "0:"
    INDEX 01 01:21:00
  TRACK 68 AUDIO
    TITLE "13:cjc029_1731"
    INDEX 01 01:21:59
  TRACK 69 AUDIO
    TITLE "0:"
    INDEX 01 01:22:60
  TRACK 70 AUDIO
    TITLE "14:cjc029_1732"
    INDEX 01 01:22:64
  TRACK 71 AUDIO
    TITLE "0:"
    INDEX 01 01:26:66
  TRACK 72 AUDIO
    TITLE "13:cjc029_1733"
    INDEX 01 01:27:48
  TRACK 73 AUDIO
    TITLE "0:"
    INDEX 01 01:28:59
  TRACK 74 AUDIO
    TITLE "14:cjc029_1734"
    INDEX 01 01:28:61
  TRACK 75 AUDIO
    TITLE "0:"
    INDEX 01 01:35:33
